<?xml version="1.0" encoding="utf-8"?>
<!-- Generator: Adobe Illustrator 18.0.0, SVG Export Plug-In . SVG Version: 6.00 Build 0)  -->
<!DOCTYPE svg PUBLIC "-//W3C//DTD SVG 1.1//EN" "http://www.w3.org/Graphics/SVG/1.1/DTD/svg11.dtd">
<svg version="1.1" id="Main" xmlns="http://www.w3.org/2000/svg" xmlns:xlink="http://www.w3.org/1999/xlink" x="0px" y="0px"
	 viewBox="0 0 328.583 407.5" enable-background="new 0 0 328.583 407.5" xml:space="preserve">
<rect id="MainBack" x="2.196" y="2.225" fill="#FFFFFF" stroke="#3076BC" stroke-width="3" stroke-miterlimit="10" width="325" height="404"/>
<rect id="Back" x="2.196" y="2.225" fill="#3076BC" stroke="#3076BC" stroke-width="3" stroke-miterlimit="10" width="325" height="326"/>
<path fill="#FFFFFF" d="M79.868,267.069l-10.83,39.349H63.77l-7.889-28.757c-0.339-1.224-0.543-2.56-0.615-4.005h-0.107
	c-0.107,1.353-0.339,2.671-0.695,3.951l-7.942,28.812h-5.213l-11.232-39.349h4.947l8.156,30.184c0.339,1.263,0.553,2.58,0.642,3.952
	h0.134c0.089-0.97,0.365-2.286,0.829-3.952l8.477-30.184h4.304l8.129,30.403c0.285,1.043,0.499,2.269,0.643,3.678h0.107
	c0.071-0.951,0.311-2.214,0.722-3.787L75,267.069H79.868z"/>
<path fill="#FFFFFF" d="M87.221,271.186c-0.784,0-1.454-0.275-2.006-0.824c-0.552-0.548-0.829-1.244-0.829-2.085
	s0.276-1.542,0.829-2.1c0.552-0.557,1.222-0.836,2.006-0.836c0.801,0,1.484,0.279,2.045,0.836c0.562,0.558,0.842,1.259,0.842,2.1
	c0,0.805-0.28,1.491-0.842,2.058C88.704,270.902,88.022,271.186,87.221,271.186z M89.359,306.418h-4.385V278.32h4.385V306.418z"/>
<path fill="#FFFFFF" d="M120.967,306.418h-4.386v-16.025c0-5.964-2.121-8.946-6.363-8.946c-2.193,0-4.008,0.847-5.443,2.538
	c-1.434,1.693-2.152,3.828-2.152,6.408v16.025h-4.385V278.32h4.385v4.665h0.108c2.067-3.549,5.062-5.324,8.984-5.324
	c2.996,0,5.285,0.994,6.872,2.978c1.587,1.985,2.38,4.852,2.38,8.602V306.418z"/>
<path fill="#FFFFFF" d="M152.599,306.418h-4.385v-4.774h-0.107c-2.033,3.622-5.17,5.433-9.413,5.433
	c-3.441,0-6.189-1.258-8.249-3.773c-2.059-2.514-3.089-5.94-3.089-10.275c0-4.647,1.141-8.37,3.423-11.168
	c2.281-2.798,5.321-4.199,9.117-4.199c3.762,0,6.5,1.52,8.21,4.556h0.107v-17.398h4.385V306.418z M148.214,293.714v-4.144
	c0-2.267-0.731-4.189-2.192-5.762c-1.462-1.574-3.317-2.36-5.562-2.36c-2.674,0-4.778,1.006-6.311,3.019
	c-1.533,2.012-2.3,4.793-2.3,8.342c0,3.237,0.734,5.794,2.206,7.669c1.471,1.875,3.446,2.812,5.924,2.812
	c2.441,0,4.424-0.905,5.949-2.716C147.453,298.763,148.214,296.477,148.214,293.714z"/>
<path fill="#FFFFFF" d="M172.923,307.077c-4.047,0-7.277-1.312-9.694-3.938c-2.416-2.625-3.623-6.105-3.623-10.44
	c0-4.72,1.256-8.405,3.769-11.058c2.514-2.652,5.911-3.979,10.189-3.979c4.082,0,7.269,1.29,9.56,3.87
	c2.291,2.579,3.437,6.155,3.437,10.728c0,4.483-1.235,8.072-3.704,10.77C180.388,305.727,177.077,307.077,172.923,307.077z
	 M173.244,281.448c-2.818,0-5.046,0.984-6.686,2.95c-1.64,1.967-2.46,4.679-2.46,8.136c0,3.33,0.829,5.955,2.487,7.875
	c1.657,1.921,3.877,2.881,6.658,2.881c2.833,0,5.014-0.941,6.537-2.826c1.526-1.884,2.287-4.565,2.287-8.04
	c0-3.513-0.762-6.219-2.287-8.122C178.258,282.399,176.077,281.448,173.244,281.448z"/>
<path fill="#FFFFFF" d="M228.062,278.32l-8.21,28.099h-4.546l-5.641-20.113c-0.215-0.769-0.357-1.637-0.429-2.607h-0.107
	c-0.053,0.659-0.241,1.51-0.561,2.553l-6.124,20.167h-4.385l-8.291-28.099h4.599l5.669,21.129c0.179,0.64,0.304,1.482,0.375,2.524
	h0.215c0.053-0.805,0.215-1.665,0.481-2.579l6.31-21.074h4.011l5.669,21.183c0.179,0.677,0.313,1.519,0.402,2.525h0.213
	c0.036-0.714,0.189-1.556,0.455-2.525l5.562-21.183H228.062z"/>
<path fill="#FFFFFF" d="M231.483,305.402v-4.829c2.389,1.811,5.019,2.716,7.889,2.716c3.85,0,5.775-1.317,5.775-3.951
	c0-0.75-0.164-1.387-0.494-1.908c-0.33-0.521-0.777-0.982-1.337-1.385c-0.562-0.402-1.22-0.764-1.98-1.084
	c-0.757-0.32-1.573-0.654-2.446-1.001c-1.213-0.494-2.277-0.992-3.195-1.496c-0.918-0.502-1.684-1.07-2.3-1.701
	c-0.615-0.631-1.079-1.35-1.39-2.155c-0.311-0.805-0.468-1.746-0.468-2.827c0-1.316,0.294-2.483,0.882-3.498
	c0.589-1.016,1.373-1.865,2.353-2.551c0.98-0.686,2.099-1.203,3.357-1.551c1.256-0.347,2.553-0.522,3.89-0.522
	c2.372,0,4.493,0.422,6.364,1.263v4.555c-2.014-1.353-4.333-2.031-6.952-2.031c-0.82,0-1.561,0.097-2.22,0.288
	c-0.659,0.192-1.225,0.463-1.697,0.81c-0.473,0.347-0.839,0.764-1.097,1.249c-0.258,0.485-0.387,1.02-0.387,1.605
	c0,0.732,0.129,1.345,0.387,1.838c0.258,0.494,0.638,0.933,1.136,1.317c0.499,0.383,1.105,0.732,1.818,1.042
	c0.712,0.311,1.524,0.65,2.434,1.016c1.212,0.476,2.3,0.965,3.262,1.467c0.963,0.504,1.783,1.07,2.46,1.702
	c0.678,0.631,1.199,1.358,1.564,2.182c0.366,0.822,0.548,1.801,0.548,2.936c0,1.39-0.298,2.597-0.896,3.622
	c-0.598,1.025-1.394,1.875-2.394,2.551c-0.997,0.677-2.148,1.18-3.448,1.51c-1.302,0.329-2.666,0.494-4.091,0.494
	C235.993,307.077,233.552,306.519,231.483,305.402z"/>
<g id="Compatible">
	<path fill="#3076BC" d="M69.253,380.001c-2.545,1.38-5.714,2.069-9.507,2.069c-4.898,0-8.819-1.617-11.764-4.853
		c-2.944-3.235-4.417-7.481-4.417-12.736c0-5.649,1.657-10.214,4.969-13.696c3.314-3.482,7.515-5.223,12.604-5.223
		c3.264,0,5.97,0.485,8.115,1.453v4.41c-2.465-1.412-5.186-2.119-8.162-2.119c-3.954,0-7.158,1.355-9.615,4.065
		c-2.457,2.71-3.685,6.331-3.685,10.864c0,4.303,1.148,7.731,3.445,10.285c2.297,2.554,5.31,3.83,9.039,3.83
		c3.457,0,6.448-0.788,8.978-2.365V380.001z"/>
	<path fill="#3076BC" d="M86.009,382.071c-3.633,0-6.535-1.177-8.703-3.535c-2.169-2.356-3.252-5.482-3.252-9.374
		c0-4.237,1.128-7.546,3.384-9.928c2.256-2.381,5.305-3.572,9.146-3.572c3.665,0,6.526,1.157,8.582,3.473
		c2.056,2.316,3.084,5.527,3.084,9.632c0,4.024-1.108,7.247-3.325,9.669C92.71,380.86,89.738,382.071,86.009,382.071z
		 M86.296,359.063c-2.528,0-4.529,0.883-6.002,2.648c-1.472,1.765-2.208,4.2-2.208,7.304c0,2.989,0.745,5.345,2.233,7.069
		c1.488,1.724,3.481,2.587,5.977,2.587c2.546,0,4.501-0.845,5.87-2.537c1.368-1.692,2.052-4.098,2.052-7.218
		c0-3.154-0.684-5.584-2.052-7.292C90.798,359.917,88.842,359.063,86.296,359.063z"/>
	<path fill="#3076BC" d="M139.447,381.48h-3.937v-14.485c0-2.791-0.42-4.812-1.26-6.06c-0.84-1.248-2.253-1.872-4.237-1.872
		c-1.681,0-3.109,0.788-4.285,2.365c-1.178,1.577-1.765,3.465-1.765,5.666v14.387h-3.937v-14.978c0-4.96-1.865-7.439-5.593-7.439
		c-1.728,0-3.153,0.743-4.274,2.229c-1.119,1.486-1.68,3.42-1.68,5.801v14.387h-3.937v-25.226h3.937v3.99h0.095
		c1.745-3.054,4.29-4.581,7.634-4.581c1.681,0,3.145,0.481,4.394,1.44c1.248,0.961,2.104,2.222,2.568,3.781
		c1.825-3.482,4.544-5.222,8.162-5.222c5.409,0,8.114,3.424,8.114,10.272V381.48z"/>
	<path fill="#3076BC" d="M150.922,377.834h-0.096v15.249h-3.937v-36.828h3.937v4.434h0.096c1.936-3.351,4.77-5.025,8.499-5.025
		c3.169,0,5.641,1.129,7.418,3.386c1.776,2.259,2.665,5.285,2.665,9.078c0,4.221-1,7.6-3.001,10.138
		c-2.001,2.537-4.737,3.805-8.21,3.805C155.107,382.071,152.65,380.658,150.922,377.834z M150.826,367.66v3.523
		c0,2.086,0.66,3.855,1.981,5.309s2.998,2.18,5.03,2.18c2.383,0,4.252-0.936,5.605-2.809c1.352-1.872,2.028-4.474,2.028-7.809
		c0-2.809-0.632-5.009-1.896-6.602c-1.265-1.593-2.977-2.39-5.137-2.39c-2.289,0-4.13,0.817-5.522,2.451
		C151.523,363.148,150.826,365.196,150.826,367.66z"/>
	<path fill="#3076BC" d="M192.741,381.48h-3.936v-3.942h-0.097c-1.712,3.022-4.233,4.533-7.561,4.533
		c-2.449,0-4.366-0.664-5.75-1.995c-1.384-1.331-2.077-3.096-2.077-5.297c0-4.713,2.705-7.456,8.115-8.228l7.37-1.058
		c0-4.287-1.689-6.43-5.066-6.43c-2.961,0-5.633,1.035-8.019,3.104v-4.139c2.417-1.577,5.201-2.365,8.355-2.365
		c5.777,0,8.666,3.136,8.666,9.41V381.48z M188.804,368.719l-5.931,0.838c-1.824,0.263-3.2,0.727-4.128,1.392
		c-0.929,0.666-1.393,1.844-1.393,3.536c0,1.232,0.428,2.237,1.285,3.017c0.855,0.78,1.996,1.17,3.42,1.17
		c1.952,0,3.565-0.702,4.838-2.106c1.273-1.404,1.909-3.182,1.909-5.333V368.719z"/>
	<path fill="#3076BC" d="M211.562,381.233c-0.929,0.526-2.154,0.789-3.673,0.789c-4.305,0-6.458-2.463-6.458-7.391v-14.928h-4.225
		v-3.449h4.225v-6.158l3.936-1.306v7.464h6.195v3.449h-6.195v14.213c0,1.692,0.28,2.899,0.841,3.621
		c0.56,0.723,1.488,1.084,2.785,1.084c0.991,0,1.849-0.279,2.569-0.838V381.233z"/>
	<path fill="#3076BC" d="M218.835,349.849c-0.704,0-1.304-0.247-1.8-0.739c-0.497-0.492-0.745-1.117-0.745-1.872
		s0.248-1.383,0.745-1.884c0.496-0.501,1.096-0.751,1.8-0.751c0.721,0,1.333,0.25,1.838,0.751c0.503,0.501,0.755,1.129,0.755,1.884
		c0,0.723-0.252,1.339-0.755,1.847C220.168,349.595,219.556,349.849,218.835,349.849z M220.756,381.48h-3.937v-25.226h3.937V381.48z
		"/>
	<path fill="#3076BC" d="M232.76,377.834h-0.096v3.646h-3.937v-37.346h3.937v16.554h0.096c1.935-3.351,4.768-5.025,8.498-5.025
		c3.153,0,5.621,1.129,7.406,3.386c1.785,2.259,2.677,5.285,2.677,9.078c0,4.221-1,7.6-3,10.138
		c-2.001,2.537-4.738,3.805-8.21,3.805C236.88,382.071,234.424,380.658,232.76,377.834z M232.663,367.66v3.523
		c0,2.086,0.66,3.855,1.981,5.309c1.32,1.453,2.997,2.18,5.029,2.18c2.384,0,4.253-0.936,5.606-2.809
		c1.352-1.872,2.028-4.474,2.028-7.809c0-2.809-0.632-5.009-1.896-6.602c-1.265-1.593-2.977-2.39-5.139-2.39
		c-2.288,0-4.129,0.817-5.522,2.451C233.359,363.148,232.663,365.196,232.663,367.66z"/>
	<path fill="#3076BC" d="M261.567,381.48h-3.937v-37.346h3.937V381.48z"/>
	<path fill="#3076BC" d="M289.294,369.877h-17.356c0.063,2.809,0.8,4.976,2.208,6.503c1.409,1.528,3.345,2.291,5.81,2.291
		c2.768,0,5.314-0.936,7.634-2.809v3.794c-2.16,1.609-5.017,2.414-8.569,2.414c-3.474,0-6.202-1.145-8.186-3.436
		c-1.985-2.291-2.977-5.514-2.977-9.669c0-3.925,1.083-7.124,3.252-9.595c2.169-2.471,4.862-3.707,8.078-3.707
		c3.218,0,5.706,1.067,7.467,3.202c1.761,2.135,2.641,5.099,2.641,8.893V369.877z M285.26,366.453
		c-0.015-2.331-0.563-4.146-1.644-5.444c-1.08-1.298-2.581-1.946-4.501-1.946c-1.857,0-3.433,0.682-4.73,2.044
		c-1.297,1.364-2.096,3.145-2.4,5.345H285.26z"/>
</g>
<path id="Winlogo" fill="#FFFFFF" stroke="#00AEEF" stroke-miterlimit="10" d="M154.074,39.462L268.15,23.688v101.511H154.074
	V39.462z M145.891,125.199V40.593L58.839,52.63v72.57H145.891z M154.074,133.382v84.97L268.15,233v-99.618H154.074z
	 M145.891,133.382H58.839v72.742l87.052,11.177V133.382z"/>
<path fill="#FFFFFF" d="M271.506,273.414h-0.121l-6.855,3.701l-1.031-4.065l8.615-4.61h4.55v39.435h-5.157V273.414z"/>
<path fill="#FFFFFF" d="M312.313,287.732c0,13.407-7.703,20.809-13.712,20.809c-7.704,0-12.982-7.219-13.104-20.263
	c0-13.287,5.763-20.507,13.771-20.507C307.521,267.771,312.313,275.174,312.313,287.732z M290.897,288.339
	c0,10.253,3.154,16.077,8.008,16.077c2.733,0,8.009-6.37,8.009-16.441c0-9.707-2.427-16.077-8.009-16.077
	C294.295,271.897,290.897,277.601,290.897,288.339z"/>
</svg>
