<?xml version="1.0" encoding="UTF-8" standalone="no"?>
<!-- Created with Inkscape (http://www.inkscape.org/) -->

<svg
   xmlns:dc="http://purl.org/dc/elements/1.1/"
   xmlns:cc="http://creativecommons.org/ns#"
   xmlns:rdf="http://www.w3.org/1999/02/22-rdf-syntax-ns#"
   xmlns:svg="http://www.w3.org/2000/svg"
   xmlns="http://www.w3.org/2000/svg"
   xmlns:sodipodi="http://sodipodi.sourceforge.net/DTD/sodipodi-0.dtd"
   xmlns:inkscape="http://www.inkscape.org/namespaces/inkscape"
   width="297mm"
   height="210mm"
   viewBox="0 0 1052.3622 744.09448"
   id="svg2"
   version="1.1"
   inkscape:version="0.91 r13725"
   sodipodi:docname="process.svg">
  <defs
     id="defs4">
    <marker
       inkscape:stockid="TriangleOutM"
       orient="auto"
       refY="0.0"
       refX="0.0"
       id="TriangleOutM"
       style="overflow:visible"
       inkscape:isstock="true">
      <path
         id="path4644"
         d="M 5.77,0.0 L -2.88,5.0 L -2.88,-5.0 L 5.77,0.0 z "
         style="fill-rule:evenodd;stroke:#ff0101;stroke-width:1pt;stroke-opacity:1;fill:#ffffff;fill-opacity:1"
         transform="scale(0.4)" />
    </marker>
    <marker
       inkscape:stockid="Arrow1Send"
       orient="auto"
       refY="0.0"
       refX="0.0"
       id="marker4871"
       style="overflow:visible;"
       inkscape:isstock="true">
      <path
         id="path4873"
         d="M 0.0,0.0 L 5.0,-5.0 L -12.5,0.0 L 5.0,5.0 L 0.0,0.0 z "
         style="fill-rule:evenodd;stroke:#000000;stroke-width:1pt;stroke-opacity:1;fill:#000000;fill-opacity:1"
         transform="scale(0.2) rotate(180) translate(6,0)" />
    </marker>
    <marker
       inkscape:stockid="Arrow1Send"
       orient="auto"
       refY="0.0"
       refX="0.0"
       id="Arrow1Send"
       style="overflow:visible;"
       inkscape:isstock="true">
      <path
         id="path4514"
         d="M 0.0,0.0 L 5.0,-5.0 L -12.5,0.0 L 5.0,5.0 L 0.0,0.0 z "
         style="fill-rule:evenodd;stroke:#000000;stroke-width:1pt;stroke-opacity:1;fill:#000000;fill-opacity:1"
         transform="scale(0.2) rotate(180) translate(6,0)" />
    </marker>
    <marker
       inkscape:stockid="DiamondS"
       orient="auto"
       refY="0.0"
       refX="0.0"
       id="DiamondS"
       style="overflow:visible"
       inkscape:isstock="true">
      <path
         id="path4584"
         d="M 0,-7.0710768 L -7.0710894,0 L 0,7.0710589 L 7.0710462,0 L 0,-7.0710768 z "
         style="fill-rule:evenodd;stroke:#000000;stroke-width:1pt;stroke-opacity:1;fill:#000000;fill-opacity:1"
         transform="scale(0.2)" />
    </marker>
    <marker
       inkscape:stockid="Arrow2Mend"
       orient="auto"
       refY="0.0"
       refX="0.0"
       id="Arrow2Mend"
       style="overflow:visible;"
       inkscape:isstock="true">
      <path
         id="path4526"
         style="fill-rule:evenodd;stroke-width:0.625;stroke-linejoin:round;stroke:#000000;stroke-opacity:1;fill:#000000;fill-opacity:1"
         d="M 8.7185878,4.0337352 L -2.2072895,0.016013256 L 8.7185884,-4.0017078 C 6.9730900,-1.6296469 6.9831476,1.6157441 8.7185878,4.0337352 z "
         transform="scale(0.6) rotate(180) translate(0,0)" />
    </marker>
    <marker
       inkscape:stockid="Arrow2Lend"
       orient="auto"
       refY="0.0"
       refX="0.0"
       id="Arrow2Lend"
       style="overflow:visible;"
       inkscape:isstock="true">
      <path
         id="path4520"
         style="fill-rule:evenodd;stroke-width:0.625;stroke-linejoin:round;stroke:#000000;stroke-opacity:1;fill:#000000;fill-opacity:1"
         d="M 8.7185878,4.0337352 L -2.2072895,0.016013256 L 8.7185884,-4.0017078 C 6.9730900,-1.6296469 6.9831476,1.6157441 8.7185878,4.0337352 z "
         transform="scale(1.1) rotate(180) translate(1,0)" />
    </marker>
    <marker
       inkscape:stockid="TriangleOutM"
       orient="auto"
       refY="0"
       refX="0"
       id="TriangleOutM-0"
       style="overflow:visible"
       inkscape:isstock="true">
      <path
         inkscape:connector-curvature="0"
         id="path4644-3"
         d="m 5.77,0 -8.65,5 0,-10 8.65,5 z"
         style="fill:#ff0101;fill-opacity:1;fill-rule:evenodd;stroke:#ff0101;stroke-width:1pt;stroke-opacity:1"
         transform="scale(0.4,0.4)" />
    </marker>
    <marker
       inkscape:stockid="TriangleOutM"
       orient="auto"
       refY="0"
       refX="0"
       id="TriangleOutM-0-1"
       style="overflow:visible"
       inkscape:isstock="true">
      <path
         inkscape:connector-curvature="0"
         id="path4644-3-0"
         d="m 5.77,0 -8.65,5 0,-10 8.65,5 z"
         style="fill:#ff6400;fill-opacity:1;fill-rule:evenodd;stroke:#ff6400;stroke-width:1pt;stroke-opacity:1"
         transform="scale(0.4,0.4)" />
    </marker>
    <marker
       inkscape:stockid="TriangleOutM"
       orient="auto"
       refY="0"
       refX="0"
       id="TriangleOutM-0-3"
       style="overflow:visible"
       inkscape:isstock="true">
      <path
         inkscape:connector-curvature="0"
         id="path4644-3-2"
         d="m 5.77,0 -8.65,5 0,-10 8.65,5 z"
         style="fill:#00d401;fill-opacity:1;fill-rule:evenodd;stroke:#00d401;stroke-width:1pt;stroke-opacity:1"
         transform="scale(0.4,0.4)" />
    </marker>
    <marker
       inkscape:stockid="TriangleOutM"
       orient="auto"
       refY="0"
       refX="0"
       id="TriangleOutM-0-3-3"
       style="overflow:visible"
       inkscape:isstock="true">
      <path
         inkscape:connector-curvature="0"
         id="path4644-3-2-6"
         d="m 5.77,0 -8.65,5 0,-10 8.65,5 z"
         style="fill:#00d401;fill-opacity:1;fill-rule:evenodd;stroke:#00d401;stroke-width:1pt;stroke-opacity:1"
         transform="scale(0.4,0.4)" />
    </marker>
  </defs>
  <sodipodi:namedview
     id="base"
     pagecolor="#ffffff"
     bordercolor="#666666"
     borderopacity="1.0"
     inkscape:pageopacity="0.0"
     inkscape:pageshadow="2"
     inkscape:zoom="0.45849609"
     inkscape:cx="1380.3324"
     inkscape:cy="-416.39778"
     inkscape:document-units="px"
     inkscape:current-layer="layer1"
     showgrid="true"
     inkscape:window-width="1855"
     inkscape:window-height="1056"
     inkscape:window-x="65"
     inkscape:window-y="24"
     inkscape:window-maximized="1">
    <inkscape:grid
       type="xygrid"
       id="grid4136" />
  </sodipodi:namedview>
  <metadata
     id="metadata7">
    <rdf:RDF>
      <cc:Work
         rdf:about="">
        <dc:format>image/svg+xml</dc:format>
        <dc:type
           rdf:resource="http://purl.org/dc/dcmitype/StillImage" />
        <dc:title />
        <dc:creator>
          <cc:Agent>
            <dc:title>Luca Ceresoli</dc:title>
          </cc:Agent>
        </dc:creator>
        <dc:date>2016</dc:date>
        <cc:license
           rdf:resource="http://creativecommons.org/licenses/by-sa/3.0/" />
      </cc:Work>
      <cc:License
         rdf:about="http://creativecommons.org/licenses/by-sa/3.0/">
        <cc:permits
           rdf:resource="http://creativecommons.org/ns#Reproduction" />
        <cc:permits
           rdf:resource="http://creativecommons.org/ns#Distribution" />
        <cc:requires
           rdf:resource="http://creativecommons.org/ns#Notice" />
        <cc:requires
           rdf:resource="http://creativecommons.org/ns#Attribution" />
        <cc:permits
           rdf:resource="http://creativecommons.org/ns#DerivativeWorks" />
        <cc:requires
           rdf:resource="http://creativecommons.org/ns#ShareAlike" />
      </cc:License>
    </rdf:RDF>
  </metadata>
  <g
     inkscape:label="Livello 1"
     inkscape:groupmode="layer"
     id="layer1"
     transform="translate(0,-308.26772)">
    <rect
       style="opacity:1;fill:#d1d3df;fill-opacity:1;stroke:#000000;stroke-width:2;stroke-linecap:round;stroke-miterlimit:4;stroke-dasharray:none;stroke-opacity:1"
       id="rect5002"
       width="419.18881"
       height="440"
       x="272.92892"
       y="447.91138"
       ry="60.000027" />
    <path
       style="opacity:1;fill:#4f5b75;fill-opacity:1;stroke:#000000;stroke-width:2.41151381;stroke-linecap:round;stroke-linejoin:round;stroke-miterlimit:4;stroke-dasharray:none;stroke-opacity:1"
       d="m 413.89695,650.20691 0,25.7448 a 80.383795,80.383795 0 0 0 -28.20812,11.73415 l -18.23864,-18.24022 -22.73669,22.73669 18.23394,18.23393 a 80.383795,80.383795 0 0 0 -11.64623,28.21283 l -25.82644,0 0,32.15352 25.74479,0 a 80.383795,80.383795 0 0 0 11.73416,28.20811 l -18.24022,18.23865 22.73669,22.73668 18.23393,-18.23393 a 80.383795,80.383795 0 0 0 28.21283,11.64622 l 0,25.82644 32.15352,0 0,-25.7448 a 80.383795,80.383795 0 0 0 28.20812,-11.73414 l 18.23864,18.24021 22.73668,-22.73668 -18.23394,-18.23394 a 80.383795,80.383795 0 0 0 11.64623,-28.21282 l 25.82644,0 0,-32.15352 -25.74479,0 A 80.383795,80.383795 0 0 0 496.9937,710.42097 l 18.24021,-18.23864 -22.73668,-22.73669 -18.23393,18.23394 a 80.383795,80.383795 0 0 0 -28.21283,-11.64624 l 0,-25.82643 -32.15352,0 z m 16.07676,64.60691 a 39.892703,39.892703 0 0 1 39.89202,39.89203 39.892703,39.892703 0 0 1 -39.89202,39.89359 39.892703,39.892703 0 0 1 -39.89203,-39.89359 39.892703,39.892703 0 0 1 39.89203,-39.89203 z"
       id="path4138"
       inkscape:connector-curvature="0" />
    <path
       inkscape:connector-curvature="0"
       style="opacity:1;fill:#4f5b75;fill-opacity:1;stroke:#000000;stroke-width:2.41151381;stroke-linecap:round;stroke-linejoin:round;stroke-miterlimit:4;stroke-dasharray:none;stroke-opacity:1"
       d="m 520.80739,484.6163 0,25.74479 a 80.383795,80.383795 0 0 0 -28.20812,11.73415 l -18.23864,-18.24022 -22.73668,22.73669 18.23394,18.23393 a 80.383795,80.383795 0 0 0 -11.64623,28.21283 l -25.82644,0 0,32.15352 25.74479,0 a 80.383795,80.383795 0 0 0 11.73415,28.20811 l -18.24021,18.23865 22.73668,22.73668 18.23393,-18.23393 a 80.383795,80.383795 0 0 0 28.21283,11.64623 l 0,25.82643 32.15352,0 0,-25.7448 a 80.383795,80.383795 0 0 0 28.20812,-11.73414 l 18.23864,18.24021 22.73669,-22.73668 -18.23394,-18.23394 a 80.383795,80.383795 0 0 0 11.64623,-28.21282 l 25.82644,0 0,-32.15352 -25.74479,0 a 80.383795,80.383795 0 0 0 -11.73416,-28.20812 l 18.24022,-18.23864 -22.73669,-22.73669 -18.23393,18.23394 a 80.383795,80.383795 0 0 0 -28.21283,-11.64624 l 0,-25.82642 -32.15352,0 z m 16.07676,64.6069 a 39.892703,39.892703 0 0 1 39.89203,39.89203 39.892703,39.892703 0 0 1 -39.89203,39.89359 39.892703,39.892703 0 0 1 -39.89202,-39.89359 39.892703,39.892703 0 0 1 39.89202,-39.89203 z"
       id="path4138-5" />
    <path
       style="fill:none;fill-rule:evenodd;stroke:#ff0101;stroke-width:22;stroke-linecap:round;stroke-linejoin:round;stroke-miterlimit:4;stroke-dasharray:none;stroke-opacity:1;marker-end:url(#TriangleOutM-0)"
       d="m 697.83609,818.0479 138.56406,80.00001"
       id="path4493-6"
       inkscape:connector-curvature="0" />
    <path
       style="fill:none;fill-rule:evenodd;stroke:#00d401;stroke-width:22;stroke-linecap:round;stroke-linejoin:round;stroke-miterlimit:4;stroke-dasharray:none;stroke-opacity:1;marker-end:url(#TriangleOutM-0-3)"
       d="m 69.928932,652.91141 159.999998,0"
       id="path4493-6-0"
       inkscape:connector-curvature="0" />
    <text
       xml:space="preserve"
       style="font-style:normal;font-weight:normal;font-size:40px;line-height:125%;font-family:Sans;letter-spacing:0px;word-spacing:0px;fill:#000000;fill-opacity:1;stroke:none;stroke-width:1px;stroke-linecap:butt;stroke-linejoin:miter;stroke-opacity:1"
       x="230.6008"
       y="745.91138"
       id="text8248-6"
       sodipodi:linespacing="125%"><tspan
         sodipodi:role="line"
         x="230.6008"
         y="745.91138"
         style="font-style:normal;font-variant:normal;font-weight:normal;font-stretch:normal;font-size:60px;font-family:'DejaVu Sans Mono';-inkscape-font-specification:'DejaVu Sans Mono';text-align:end;text-anchor:end"
         id="tspan8274">stdin</tspan></text>
    <text
       xml:space="preserve"
       style="font-style:normal;font-weight:normal;font-size:40px;line-height:125%;font-family:Sans;letter-spacing:0px;word-spacing:0px;fill:#000000;fill-opacity:1;stroke:none;stroke-width:1px;stroke-linecap:butt;stroke-linejoin:miter;stroke-opacity:1"
       x="290"
       y="852.36218"
       id="text8270"
       sodipodi:linespacing="125%"><tspan
         sodipodi:role="line"
         id="tspan8272"
         x="290"
         y="852.36218" /></text>
    <text
       xml:space="preserve"
       style="font-style:normal;font-weight:normal;font-size:40px;line-height:125%;font-family:Sans;letter-spacing:0px;word-spacing:0px;fill:#000000;fill-opacity:1;stroke:none;stroke-width:1px;stroke-linecap:butt;stroke-linejoin:miter;stroke-opacity:1"
       x="712.60083"
       y="745.91138"
       id="text8248-6-5"
       sodipodi:linespacing="125%"><tspan
         sodipodi:role="line"
         x="712.60083"
         y="745.91138"
         style="font-style:normal;font-variant:normal;font-weight:normal;font-stretch:normal;font-size:60px;font-family:'DejaVu Sans Mono';-inkscape-font-specification:'DejaVu Sans Mono';text-align:start;text-anchor:start"
         id="tspan8274-4">stdout</tspan></text>
    <path
       style="fill:none;fill-rule:evenodd;stroke:#00d401;stroke-width:22;stroke-linecap:round;stroke-linejoin:round;stroke-miterlimit:4;stroke-dasharray:none;stroke-opacity:1;marker-end:url(#TriangleOutM-0-3-3)"
       d="m 694.15851,652.91141 160,0"
       id="path4493-6-0-7"
       inkscape:connector-curvature="0" />
    <text
       xml:space="preserve"
       style="font-style:normal;font-weight:normal;font-size:40px;line-height:125%;font-family:Sans;letter-spacing:0px;word-spacing:0px;fill:#000000;fill-opacity:1;stroke:none;stroke-width:1px;stroke-linecap:butt;stroke-linejoin:miter;stroke-opacity:1"
       x="712.60083"
       y="989.55811"
       id="text8248-6-5-3"
       sodipodi:linespacing="125%"><tspan
         sodipodi:role="line"
         x="712.60083"
         y="989.55811"
         style="font-style:normal;font-variant:normal;font-weight:normal;font-stretch:normal;font-size:60px;font-family:'DejaVu Sans Mono';-inkscape-font-specification:'DejaVu Sans Mono';text-align:start;text-anchor:start"
         id="tspan8274-4-0">stderr</tspan></text>
    <text
       xml:space="preserve"
       style="font-style:normal;font-weight:normal;font-size:40px;line-height:125%;font-family:Sans;letter-spacing:0px;word-spacing:0px;writing-mode:lr-tb;fill:#000000;fill-opacity:1;stroke:none;stroke-width:1px;stroke-linecap:butt;stroke-linejoin:miter;stroke-opacity:1"
       x="880"
       y="972.36218"
       id="text5047"
       sodipodi:linespacing="125%"><tspan
         sodipodi:role="line"
         id="tspan5049"
         x="880"
         y="972.36218" /></text>
  </g>
</svg>
